<svg xmlns="http://www.w3.org/2000/svg" xmlns:xlink="http://www.w3.org/1999/xlink" width="40px" zoomAndPan="magnify" viewBox="0 0 375 374.999991" height="40px"  preserveAspectRatio="xMidYMid meet" version="1.0"><defs><clipPath id="9b87ecb988"><path d="M 7 43.011719 L 368 43.011719 L 368 331.761719 L 7 331.761719 Z M 7 43.011719 " clip-rule="nonzero"/></clipPath></defs><g clip-path="url(#9b87ecb988)"><path fill="#00aaff" d="M 195.414062 312.898438 L 249.277344 114.851562 L 356.980469 114.851562 Z M 187.640625 314.53125 L 133.324219 114.851562 L 241.953125 114.851562 Z M 18.300781 114.851562 L 126 114.851562 L 179.863281 312.898438 Z M 305.507812 51.816406 L 356.441406 107.789062 L 254.574219 107.789062 Z M 187.640625 51.816406 L 238.574219 107.789062 L 136.707031 107.789062 Z M 69.769531 51.816406 L 120.703125 107.789062 L 18.835938 107.789062 Z M 128.703125 106.074219 L 77.769531 50.101562 L 179.640625 50.101562 Z M 246.574219 106.074219 L 195.640625 50.101562 L 297.507812 50.101562 Z M 367.910156 111.644531 C 367.992188 111.082031 367.882812 110.492188 367.65625 109.957031 C 367.628906 109.898438 367.65625 109.84375 367.628906 109.816406 C 367.570312 109.730469 367.488281 109.675781 367.429688 109.589844 C 367.316406 109.394531 367.234375 109.140625 367.035156 108.945312 L 308.128906 44.191406 C 308.101562 44.191406 308.074219 44.164062 308.042969 44.164062 C 307.398438 43.488281 306.496094 43.039062 305.507812 43.039062 L 69.769531 43.039062 C 68.753906 43.039062 67.882812 43.488281 67.234375 44.164062 C 67.207031 44.164062 67.179688 44.191406 67.148438 44.191406 L 8.242188 108.945312 C 8.046875 109.140625 7.960938 109.394531 7.847656 109.589844 C 7.792969 109.675781 7.707031 109.730469 7.652344 109.816406 C 7.625 109.84375 7.652344 109.898438 7.625 109.957031 C 7.398438 110.492188 7.3125 111.082031 7.371094 111.644531 C 7.371094 111.757812 7.425781 111.867188 7.425781 111.980469 C 7.511719 112.460938 7.707031 112.882812 7.988281 113.304688 C 8.046875 113.386719 8.046875 113.472656 8.101562 113.554688 L 184.878906 330.226562 C 185.019531 330.394531 185.1875 330.5625 185.359375 330.730469 C 185.667969 330.984375 186.003906 331.183594 186.371094 331.324219 C 186.371094 331.324219 186.371094 331.324219 186.398438 331.324219 C 186.792969 331.464844 187.21875 331.546875 187.640625 331.546875 C 188.0625 331.546875 188.511719 331.464844 188.90625 331.324219 C 189.273438 331.183594 189.613281 330.984375 189.894531 330.730469 C 190.089844 330.589844 190.257812 330.394531 190.398438 330.226562 L 367.175781 113.554688 C 367.234375 113.472656 367.234375 113.386719 367.289062 113.304688 C 367.570312 112.882812 367.738281 112.460938 367.851562 111.980469 C 367.851562 111.867188 367.910156 111.757812 367.910156 111.644531 " fill-opacity="1" fill-rule="nonzero"/></g></svg>