<svg xmlns="http://www.w3.org/2000/svg" xmlns:xlink="http://www.w3.org/1999/xlink" width="50px" zoomAndPan="magnify" viewBox="0 0 375 374.999991" height="50px" preserveAspectRatio="xMidYMid meet" version="1.0"><defs><clipPath id="dc5ef5290e"><path d="M 283 235 L 360.871094 235 L 360.871094 268.054688 L 283 268.054688 Z M 283 235 " clip-rule="nonzero"/></clipPath><clipPath id="211430da13"><path d="M 193 235 L 271 235 L 271 268.054688 L 193 268.054688 Z M 193 235 " clip-rule="nonzero"/></clipPath><clipPath id="c9e89e4698"><path d="M 103 235 L 181 235 L 181 268.054688 L 103 268.054688 Z M 103 235 " clip-rule="nonzero"/></clipPath><clipPath id="a05cb691e0"><path d="M 14.371094 235 L 92 235 L 92 268.054688 L 14.371094 268.054688 Z M 14.371094 235 " clip-rule="nonzero"/></clipPath></defs><g clip-path="url(#dc5ef5290e)"><path fill="#efb810
" d="M 299.101562 235.351562 L 344.9375 235.351562 L 360.871094 268.054688 L 283.199219 268.054688 L 299.101562 235.351562 " fill-opacity="1" fill-rule="nonzero"/></g><g clip-path="url(#211430da13)"><path fill="#efb810
" d="M 209.003906 235.351562 L 254.835938 235.351562 L 270.742188 268.054688 L 193.097656 268.054688 L 209.003906 235.351562 " fill-opacity="1" fill-rule="nonzero"/></g><g clip-path="url(#c9e89e4698)"><path fill="#efb810
" d="M 118.902344 235.351562 L 164.707031 235.351562 L 180.640625 268.054688 L 103.152344 268.054688 L 103.058594 267.902344 L 118.902344 235.351562 " fill-opacity="1" fill-rule="nonzero"/></g><g clip-path="url(#a05cb691e0)"><path fill="#efb810
" d="M 30.308594 235.351562 L 76.140625 235.351562 L 91.953125 267.902344 L 91.863281 268.054688 L 14.371094 268.054688 L 30.308594 235.351562 " fill-opacity="1" fill-rule="nonzero"/></g><path fill="#efb810
" d="M 254.804688 191.816406 L 300.640625 191.816406 L 316.546875 224.519531 L 238.902344 224.519531 L 254.804688 191.816406 " fill-opacity="1" fill-rule="nonzero"/><path fill="#efb810
" d="M 164.707031 191.816406 L 210.507812 191.816406 L 226.445312 224.519531 L 148.800781 224.519531 L 164.707031 191.816406 " fill-opacity="1" fill-rule="nonzero"/><path fill="#efb810
" d="M 74.605469 191.816406 L 120.4375 191.816406 L 136.34375 224.519531 L 58.667969 224.519531 L 74.605469 191.816406 " fill-opacity="1" fill-rule="nonzero"/><path fill="#efb810
" d="M 234.226562 149.082031 L 254.835938 149.082031 L 270.742188 181.785156 L 193.097656 181.785156 L 209.003906 149.113281 L 234.164062 149.113281 C 234.195312 149.113281 234.195312 149.082031 234.226562 149.082031 " fill-opacity="1" fill-rule="nonzero"/><path fill="#efb810
" d="M 118.902344 149.082031 L 141.109375 149.082031 C 141.140625 149.082031 141.140625 149.113281 141.171875 149.113281 L 164.707031 149.113281 L 180.640625 181.785156 L 102.964844 181.785156 L 118.902344 149.082031 " fill-opacity="1" fill-rule="nonzero"/><path fill="#efb810
" d="M 164.707031 106.4375 L 210.507812 106.4375 L 226.445312 139.140625 L 205.957031 139.140625 C 205.925781 139.140625 205.894531 139.140625 205.894531 139.140625 L 167.875 139.140625 C 167.84375 139.140625 167.84375 139.140625 167.8125 139.140625 L 148.800781 139.140625 L 164.707031 106.4375 " fill-opacity="1" fill-rule="nonzero"/></svg>