<svg xmlns="http://www.w3.org/2000/svg" xmlns:xlink="http://www.w3.org/1999/xlink" width="40px" zoomAndPan="magnify" viewBox="0 0 375 374.999991" height="40px" preserveAspectRatio="xMidYMid meet" version="1.0"><defs><clipPath id="c276f40d9f"><path d="M 0 2.578125 L 375 2.578125 L 375 372.328125 L 0 372.328125 Z M 0 2.578125 " clip-rule="nonzero"/></clipPath></defs><g clip-path="url(#c276f40d9f)"><path fill="#bad1c9" d="M 18.101562 125.375 C 18.183594 125.445312 18.265625 125.511719 18.347656 125.582031 C 45.613281 101.558594 72.695312 77.335938 99.003906 52.78125 C 96.878906 45.292969 94.824219 38.042969 92.691406 30.515625 C 67.726562 62.265625 42.914062 93.820312 18.101562 125.375 Z M 78.824219 353.121094 C 81.082031 329.316406 83.316406 305.734375 85.554688 282.148438 C 85.433594 282.085938 85.316406 282.023438 85.199219 281.960938 C 67.808594 295.460938 50.417969 308.960938 33.164062 322.347656 C 48.414062 332.625 63.574219 342.84375 78.824219 353.121094 Z M 41.625 216.675781 C 29.53125 220.992188 18 226.417969 6.605469 232.082031 C 14.023438 260.242188 21.417969 288.292969 28.855469 316.519531 C 29.589844 316.089844 30.105469 315.859375 30.542969 315.519531 C 33.394531 313.304688 36.214844 311.039062 39.074219 308.835938 C 41.363281 307.074219 43.714844 305.398438 46.003906 303.636719 C 48.292969 301.875 50.527344 300.046875 52.808594 298.265625 C 53.75 297.53125 54.769531 296.890625 55.703125 296.144531 C 57.492188 294.710938 59.21875 293.199219 61.023438 291.789062 C 64.332031 289.203125 67.757812 286.761719 70.988281 284.085938 C 74.921875 280.828125 78.523438 277.164062 82.921875 274.496094 C 83.816406 273.949219 83.457031 273.449219 83.007812 272.835938 C 72.230469 258.210938 61.460938 243.578125 50.6875 228.949219 C 47.671875 224.855469 44.644531 220.765625 41.625 216.675781 Z M 97.800781 27.480469 C 97.875 28.152344 97.890625 28.835938 98.035156 29.492188 C 98.582031 32.039062 99.105469 34.589844 99.757812 37.109375 C 100.738281 40.90625 101.808594 44.675781 102.878906 48.445312 C 102.972656 48.78125 103.308594 49.222656 103.601562 49.289062 C 104.515625 49.488281 105.460938 49.558594 106.398438 49.625 C 108.894531 49.792969 111.394531 49.929688 113.890625 50.089844 C 118.84375 50.40625 123.792969 50.773438 128.75 51.042969 C 131.871094 51.214844 135 51.203125 138.121094 51.359375 C 140.226562 51.464844 142.316406 51.765625 144.417969 51.902344 C 148.914062 52.199219 153.414062 52.449219 157.910156 52.714844 C 162.789062 53.003906 167.664062 53.304688 172.546875 53.5625 C 175.523438 53.71875 178.503906 53.773438 181.480469 53.933594 C 184.132812 54.070312 186.773438 54.308594 189.421875 54.457031 C 192.625 54.636719 195.832031 54.757812 199.039062 54.925781 C 203.148438 55.140625 207.257812 55.347656 211.363281 55.613281 C 214.183594 55.796875 217 56.101562 219.824219 56.289062 C 220.132812 56.308594 220.632812 55.980469 220.769531 55.691406 C 222.238281 52.460938 223.589844 49.179688 225.097656 45.972656 C 226.996094 41.949219 229.003906 37.976562 230.96875 33.984375 C 234.257812 27.289062 237.550781 20.601562 240.835938 13.910156 C 241.796875 11.953125 242.742188 9.992188 243.785156 7.847656 C 195.023438 14.40625 146.449219 20.9375 97.800781 27.480469 Z M 5.742188 225.945312 C 6.246094 225.796875 6.691406 225.714844 7.097656 225.539062 C 9.886719 224.34375 12.664062 223.113281 15.453125 221.917969 C 23.28125 218.566406 31.097656 215.191406 38.945312 211.894531 C 40.90625 211.070312 42.210938 209.90625 42.835938 207.761719 C 43.757812 204.613281 44.957031 201.539062 46.089844 198.449219 C 48.148438 192.839844 50.261719 187.25 52.324219 181.644531 C 54.253906 176.386719 56.136719 171.113281 58.0625 165.859375 C 59.300781 162.480469 60.597656 159.125 61.839844 155.75 C 64.378906 148.851562 66.890625 141.945312 69.425781 135.042969 C 71.617188 129.066406 73.832031 123.097656 76.019531 117.117188 C 79.574219 107.398438 83.09375 97.664062 86.667969 87.953125 C 89.558594 80.109375 92.515625 72.292969 95.433594 64.457031 C 95.9375 63.101562 96.378906 61.722656 96.949219 60.066406 C 95.714844 61.257812 94.761719 62.21875 93.769531 63.140625 C 89.09375 67.480469 84.421875 71.828125 79.726562 76.148438 C 75.332031 80.195312 70.929688 84.242188 66.492188 88.242188 C 59.550781 94.5 52.558594 100.699219 45.625 106.960938 C 40.117188 111.933594 34.660156 116.960938 29.191406 121.96875 C 23.929688 126.789062 18.667969 131.605469 13.4375 136.453125 C 12.523438 137.304688 11.425781 138.074219 11.449219 139.59375 C 11.46875 140.566406 11.289062 141.546875 11.214844 142.523438 C 10.898438 146.683594 10.578125 150.847656 10.285156 155.007812 C 10.078125 157.917969 9.925781 160.828125 9.730469 163.738281 C 9.417969 168.382812 9.074219 173.023438 8.761719 177.667969 C 8.402344 183.046875 8.082031 188.421875 7.710938 193.796875 C 7.367188 198.746094 6.96875 203.683594 6.625 208.628906 C 6.308594 213.082031 6.015625 217.535156 5.753906 221.992188 C 5.675781 223.269531 5.742188 224.554688 5.742188 225.945312 Z M 83.535156 352.261719 C 84.105469 352.261719 84.4375 352.234375 84.765625 352.265625 C 87.886719 352.542969 91.003906 352.867188 94.128906 353.105469 C 98.21875 353.417969 102.3125 353.640625 106.402344 353.9375 C 109.609375 354.167969 112.808594 354.464844 116.011719 354.710938 C 118.296875 354.890625 120.585938 355.015625 122.871094 355.207031 C 126.917969 355.550781 130.964844 355.949219 135.011719 356.28125 C 140.277344 356.710938 145.546875 357.09375 150.816406 357.503906 C 157.253906 358.007812 163.6875 358.523438 170.128906 359.019531 C 175.46875 359.433594 180.8125 359.820312 186.15625 360.230469 C 191.683594 360.65625 197.210938 361.09375 202.734375 361.523438 C 208.074219 361.941406 213.417969 362.363281 218.757812 362.773438 C 224.402344 363.210938 230.050781 363.640625 235.695312 364.050781 C 236.070312 364.078125 236.460938 363.910156 236.84375 363.835938 C 237.1875 364.089844 237.601562 364.234375 238.019531 364.269531 C 243.546875 364.714844 249.074219 365.144531 254.601562 365.589844 C 256.167969 365.714844 257.730469 365.875 259.636719 366.050781 C 259.101562 365.664062 258.816406 365.453125 258.527344 365.25 C 256.613281 363.902344 254.699219 362.554688 252.785156 361.210938 C 250.53125 359.636719 248.300781 358.027344 246.015625 356.503906 C 244.246094 355.320312 242.402344 354.246094 240.597656 353.113281 C 238.5625 351.832031 236.605469 350.417969 234.496094 349.285156 C 231.542969 347.691406 228.460938 346.335938 225.464844 344.816406 C 223.015625 343.574219 220.617188 342.226562 218.183594 340.949219 C 216.0625 339.839844 213.945312 338.71875 211.789062 337.683594 C 209.457031 336.558594 207.0625 335.558594 204.726562 334.4375 C 202.648438 333.441406 200.621094 332.335938 198.554688 331.3125 C 196.972656 330.53125 195.351562 329.839844 193.773438 329.050781 C 191.675781 328.003906 189.695312 326.65625 187.503906 325.898438 C 185.34375 325.15625 183.375 324.113281 181.375 323.082031 C 179.175781 321.953125 176.976562 320.820312 174.757812 319.726562 C 173.378906 319.046875 171.960938 318.453125 170.574219 317.789062 C 168.964844 317.015625 167.378906 316.191406 165.773438 315.417969 C 163.746094 314.449219 161.707031 313.519531 159.679688 312.550781 C 157.667969 311.589844 155.675781 310.589844 153.660156 309.632812 C 152.476562 309.070312 151.234375 308.617188 150.074219 308.011719 C 146.78125 306.289062 143.539062 304.476562 140.230469 302.785156 C 138.839844 302.074219 137.3125 301.648438 135.894531 300.992188 C 133.832031 300.03125 131.804688 298.996094 129.78125 297.960938 C 127.429688 296.757812 125.128906 295.453125 122.75 294.3125 C 120.304688 293.136719 117.757812 292.171875 115.316406 290.988281 C 111.976562 289.363281 108.710938 287.601562 105.394531 285.929688 C 102.28125 284.359375 99.171875 282.78125 96.015625 281.308594 C 94.363281 280.535156 92.613281 279.984375 90.648438 279.234375 C 88.265625 303.699219 85.902344 327.976562 83.535156 352.261719 Z M 311.796875 222.488281 C 312.886719 220.515625 313.75 218.890625 314.671875 217.296875 C 315.707031 215.503906 316.804688 213.75 317.851562 211.957031 C 319.378906 209.332031 320.855469 206.675781 322.40625 204.058594 C 324.507812 200.507812 326.691406 197 328.773438 193.4375 C 330.609375 190.289062 332.324219 187.070312 334.148438 183.917969 C 335.804688 181.054688 337.554688 178.246094 339.230469 175.394531 C 341.160156 172.113281 343.042969 168.808594 344.972656 165.527344 C 346.15625 163.519531 347.429688 161.558594 348.601562 159.542969 C 350.449219 156.351562 352.226562 153.117188 354.070312 149.921875 C 355.257812 147.863281 356.546875 145.859375 357.726562 143.796875 C 359.621094 140.472656 361.433594 137.105469 363.324219 133.78125 C 364.75 131.289062 366.226562 128.824219 367.71875 126.371094 C 368.207031 125.5625 368.195312 124.964844 367.40625 124.359375 C 366.78125 123.875 366.25 123.273438 365.695312 122.703125 C 363.828125 120.800781 361.976562 118.875 360.097656 116.984375 C 358.121094 114.996094 356.121094 113.035156 354.121094 111.070312 C 351.710938 108.695312 349.296875 106.332031 346.878906 103.96875 C 345.214844 102.34375 343.492188 100.773438 341.886719 99.097656 C 338.777344 95.855469 335.761719 92.535156 332.652344 89.296875 C 330.890625 87.460938 329.027344 85.726562 327.214844 83.9375 C 324.675781 81.433594 322.144531 78.925781 319.605469 76.421875 C 317.898438 74.738281 316.203125 73.042969 314.476562 71.382812 C 312.90625 69.871094 311.300781 68.402344 309.710938 66.914062 C 309.363281 66.585938 309.011719 66.269531 308.679688 65.925781 C 307.398438 64.585938 306.144531 63.214844 304.839844 61.898438 C 303.679688 60.734375 302.445312 59.636719 301.269531 58.480469 C 299.285156 56.53125 297.324219 54.558594 295.347656 52.601562 C 293.914062 51.1875 292.457031 49.792969 291.035156 48.371094 C 289.230469 46.570312 287.46875 44.726562 285.644531 42.949219 C 284.449219 41.78125 283.148438 40.722656 281.941406 39.570312 C 281.015625 38.6875 280.183594 37.703125 279.261719 36.820312 C 277.484375 35.125 275.640625 33.5 273.878906 31.792969 C 271.296875 29.292969 268.765625 26.746094 266.207031 24.226562 C 264.332031 22.382812 262.457031 20.539062 260.570312 18.703125 C 258.742188 16.929688 256.90625 15.15625 255.0625 13.398438 C 253.378906 11.804688 251.679688 10.234375 249.953125 8.621094 C 249.070312 10.265625 248.191406 11.792969 247.40625 13.371094 C 245.539062 17.140625 243.761719 20.949219 241.875 24.707031 C 237.785156 32.847656 233.636719 40.960938 229.546875 49.097656 C 228.433594 51.3125 227.570312 53.660156 226.34375 55.804688 C 225.4375 57.390625 225.375 58.863281 226.011719 60.449219 C 226.371094 61.347656 226.832031 62.210938 227.273438 63.078125 C 228.941406 66.339844 230.605469 69.609375 232.296875 72.863281 C 234.917969 77.875 237.558594 82.875 240.195312 87.878906 C 241.695312 90.71875 243.21875 93.550781 244.722656 96.390625 C 247.304688 101.253906 249.871094 106.125 252.460938 110.988281 C 254.230469 114.3125 256.042969 117.613281 257.796875 120.945312 C 260.238281 125.582031 262.628906 130.242188 265.066406 134.875 C 268.308594 141.035156 271.585938 147.175781 274.832031 153.332031 C 278.167969 159.65625 281.457031 166 284.816406 172.308594 C 288.253906 178.769531 291.769531 185.191406 295.222656 191.640625 C 296.789062 194.570312 298.25 197.550781 299.816406 200.476562 C 301.945312 204.453125 304.132812 208.398438 306.289062 212.359375 C 308.074219 215.632812 309.851562 218.910156 311.796875 222.488281 Z M 247.820312 338.855469 C 247.972656 338.4375 247.914062 337.6875 248.761719 337.042969 C 249.523438 336.464844 249.699219 335.132812 250.171875 334.152344 C 250.410156 333.65625 250.765625 333.214844 250.996094 332.714844 C 251.636719 331.324219 252.191406 329.886719 252.882812 328.523438 C 253.832031 326.644531 254.886719 324.820312 255.886719 322.964844 C 259.050781 317.089844 262.230469 311.222656 265.367188 305.328125 C 266.886719 302.464844 268.285156 299.539062 269.792969 296.667969 C 272.148438 292.175781 274.554688 287.703125 276.9375 283.222656 C 282.242188 273.242188 287.546875 263.257812 292.84375 253.273438 C 294.8125 249.558594 296.796875 245.855469 298.71875 242.117188 C 299.894531 239.824219 300.96875 237.476562 302.078125 235.144531 C 302.3125 234.65625 302.425781 234.105469 302.699219 233.644531 C 303.078125 233.003906 303.617188 232.457031 303.972656 231.808594 C 305.054688 229.863281 306.109375 227.898438 307.121094 225.917969 C 307.945312 224.308594 308.792969 222.667969 306.972656 221.117188 C 306.867188 221.027344 306.847656 220.84375 306.777344 220.710938 C 305.140625 217.597656 303.5 214.480469 301.855469 211.371094 C 298.835938 205.660156 295.808594 199.949219 292.78125 194.242188 C 289.753906 188.535156 286.71875 182.832031 283.6875 177.128906 C 282.089844 174.121094 280.484375 171.117188 278.890625 168.109375 C 276.644531 163.878906 274.410156 159.644531 272.160156 155.417969 C 269.210938 149.875 266.238281 144.347656 263.292969 138.800781 C 260.636719 133.800781 258.015625 128.777344 255.355469 123.773438 C 252.175781 117.796875 248.976562 111.832031 245.78125 105.863281 C 243.050781 100.757812 240.320312 95.652344 237.589844 90.550781 C 234.636719 85.050781 231.699219 79.546875 228.722656 74.058594 C 226.582031 70.105469 224.402344 66.171875 222.207031 62.246094 C 221.765625 61.460938 221.207031 60.808594 220.121094 60.753906 C 217.019531 60.601562 213.921875 60.339844 210.824219 60.148438 C 204.523438 59.761719 198.226562 59.386719 191.925781 59.015625 C 188.824219 58.835938 185.722656 58.691406 182.621094 58.515625 C 174.867188 58.078125 167.109375 57.640625 159.355469 57.191406 C 151.695312 56.742188 144.039062 56.261719 136.375 55.832031 C 129.238281 55.433594 122.097656 55.082031 114.957031 54.710938 C 111.859375 54.550781 108.761719 54.398438 105.664062 54.269531 C 105.234375 54.25 104.609375 54.207031 104.398438 54.457031 C 103.84375 55.105469 103.34375 55.859375 103.035156 56.65625 C 101.984375 59.398438 101.027344 62.179688 100.03125 64.941406 C 98.183594 70.046875 96.355469 75.15625 94.476562 80.25 C 92.933594 84.425781 91.3125 88.570312 89.757812 92.738281 C 86.234375 102.203125 82.714844 111.667969 79.226562 121.148438 C 75.976562 129.984375 72.78125 138.84375 69.546875 147.6875 C 67.703125 152.730469 65.824219 157.757812 63.972656 162.796875 C 62.417969 167.039062 60.886719 171.292969 59.332031 175.535156 C 57.941406 179.324219 56.527344 183.101562 55.140625 186.890625 C 53.855469 190.398438 52.582031 193.90625 51.316406 197.421875 C 49.578125 202.257812 47.890625 207.117188 46.082031 211.925781 C 45.652344 213.066406 46.226562 213.730469 46.757812 214.476562 C 47.867188 216.039062 49.046875 217.550781 50.167969 219.105469 C 52.089844 221.769531 53.972656 224.464844 55.902344 227.125 C 58.90625 231.261719 61.941406 235.375 64.960938 239.5 C 68.570312 244.445312 72.183594 249.390625 75.777344 254.347656 C 79.441406 259.394531 83.070312 264.472656 86.738281 269.515625 C 87.371094 270.386719 88.007812 271.195312 89.195312 271.550781 C 90.617188 271.976562 91.945312 272.746094 93.277344 273.429688 C 96.445312 275.050781 99.578125 276.738281 102.75 278.347656 C 105.878906 279.933594 109.050781 281.429688 112.179688 283.015625 C 117.871094 285.890625 123.523438 288.84375 129.230469 291.695312 C 134.675781 294.414062 140.171875 297.035156 145.640625 299.714844 C 148.597656 301.160156 151.53125 302.648438 154.496094 304.078125 C 157.394531 305.480469 160.230469 307 163.167969 308.328125 C 165.84375 309.539062 168.449219 310.914062 171.082031 312.222656 C 175.640625 314.488281 180.1875 316.773438 184.753906 319.023438 C 190.761719 321.980469 196.785156 324.90625 202.796875 327.851562 C 205.519531 329.183594 208.230469 330.527344 210.945312 331.867188 C 214.464844 333.605469 217.980469 335.351562 221.503906 337.089844 C 224.441406 338.539062 227.398438 339.960938 230.332031 341.433594 C 232.523438 342.53125 234.667969 343.71875 236.863281 344.796875 C 238.585938 345.636719 240.351562 346.390625 242.121094 347.128906 C 242.386719 347.238281 242.945312 347.179688 243.070312 346.992188 C 243.710938 346.078125 244.292969 345.117188 244.808594 344.128906 C 245.644531 342.515625 246.410156 340.863281 247.21875 339.238281 C 247.277344 339.125 247.460938 339.078125 247.820312 338.855469 Z M 364.21875 140.746094 C 364.042969 140.832031 363.789062 140.871094 363.707031 141.015625 C 362.515625 143.074219 361.351562 145.152344 360.175781 147.222656 C 359.171875 148.988281 358.179688 150.761719 357.148438 152.515625 C 356.433594 153.734375 355.613281 154.894531 354.941406 156.132812 C 354.058594 157.769531 353.339844 159.492188 352.433594 161.113281 C 351.046875 163.601562 349.527344 166.019531 348.125 168.507812 C 346.601562 171.21875 345.210938 174.003906 343.660156 176.699219 C 339.992188 183.074219 336.253906 189.410156 332.5625 195.769531 C 326 207.085938 319.472656 218.421875 312.871094 229.714844 C 311.429688 232.171875 309.667969 234.441406 308.183594 236.878906 C 306.8125 239.128906 305.613281 241.488281 304.339844 243.800781 C 301.851562 248.324219 299.324219 252.835938 296.878906 257.378906 C 294.703125 261.421875 292.648438 265.527344 290.476562 269.566406 C 287.132812 275.773438 283.714844 281.941406 280.359375 288.140625 C 277.484375 293.457031 274.644531 298.796875 271.796875 304.128906 C 269.753906 307.945312 267.734375 311.773438 265.679688 315.585938 C 263.605469 319.4375 261.507812 323.273438 259.414062 327.113281 C 256.140625 333.101562 252.859375 339.085938 249.597656 345.074219 C 249.054688 346.066406 248.554688 347.085938 248.089844 348.109375 C 247.875 348.578125 247.777344 349.101562 247.574219 349.777344 C 255.371094 354.765625 263.339844 359.863281 271.414062 365.03125 C 273.566406 359.945312 275.640625 355.121094 277.644531 350.261719 C 280.4375 343.480469 283.148438 336.664062 285.941406 329.878906 C 288.398438 323.917969 290.933594 317.988281 293.417969 312.042969 C 295.734375 306.503906 298.039062 300.960938 300.351562 295.417969 C 302.703125 289.789062 305.066406 284.167969 307.410156 278.53125 C 309.683594 273.058594 311.941406 267.574219 314.207031 262.09375 C 316.007812 257.714844 317.800781 253.328125 319.613281 248.953125 C 321.011719 245.566406 322.4375 242.195312 323.839844 238.8125 C 324.925781 236.195312 325.957031 233.5625 327.058594 230.957031 C 328.058594 228.59375 329.175781 226.277344 330.144531 223.898438 C 332 219.347656 333.742188 214.746094 335.617188 210.199219 C 337.980469 204.46875 340.457031 198.785156 342.84375 193.0625 C 345.230469 187.34375 347.558594 181.597656 349.925781 175.871094 C 352.503906 169.617188 355.097656 163.367188 357.683594 157.117188 C 359.34375 153.097656 361.019531 149.085938 362.648438 145.054688 C 363.222656 143.636719 363.675781 142.167969 364.1875 140.71875 C 364.816406 139.660156 365.441406 138.601562 366.070312 137.546875 C 365.964844 137.488281 365.863281 137.433594 365.761719 137.382812 C 365.15625 138.457031 363.953125 139.246094 364.21875 140.746094 Z M 249.785156 2.582031 C 253.191406 6.054688 256.648438 9.648438 260.1875 13.152344 C 264.015625 16.945312 267.925781 20.652344 271.808594 24.390625 C 275.878906 28.308594 279.976562 32.199219 284.023438 36.144531 C 286.917969 38.96875 289.722656 41.894531 292.613281 44.726562 C 295.792969 47.847656 299.039062 50.890625 302.214844 54.011719 C 305.277344 57.015625 308.277344 60.085938 311.316406 63.117188 C 314.332031 66.117188 317.371094 69.097656 320.394531 72.09375 C 323.472656 75.144531 326.542969 78.203125 329.628906 81.238281 C 332.386719 83.949219 335.203125 86.589844 337.917969 89.335938 C 339.441406 90.882812 340.765625 92.625 342.261719 94.207031 C 343.609375 95.632812 345.0625 96.949219 346.460938 98.324219 C 348.691406 100.519531 350.894531 102.738281 353.144531 104.914062 C 356.179688 107.847656 359.28125 110.707031 362.285156 113.667969 C 366.121094 117.453125 369.878906 121.316406 373.6875 125.125 C 374.566406 126.003906 374.8125 127.007812 374.375 128.132812 C 373.574219 130.199219 372.726562 132.246094 371.871094 134.292969 C 369.742188 139.375 367.605469 144.453125 365.46875 149.53125 C 362.933594 155.566406 360.382812 161.597656 357.859375 167.640625 C 354.722656 175.136719 351.609375 182.640625 348.484375 190.144531 C 346.070312 195.929688 343.671875 201.722656 341.246094 207.5 C 338.148438 214.863281 335.019531 222.214844 331.9375 229.582031 C 329.089844 236.382812 326.292969 243.207031 323.457031 250.011719 C 321.074219 255.742188 318.652344 261.460938 316.261719 267.191406 C 312.09375 277.183594 307.929688 287.175781 303.785156 297.179688 C 299.984375 306.335938 296.203125 315.496094 292.425781 324.664062 C 289.261719 332.355469 286.105469 340.050781 282.976562 347.757812 C 280.9375 352.789062 278.933594 357.832031 276.964844 362.890625 C 276.0625 365.203125 275.3125 367.574219 274.476562 369.910156 C 274.058594 371.082031 272.605469 372.332031 271.128906 372.132812 C 267.613281 371.660156 264.050781 371.503906 260.507812 371.214844 C 254.992188 370.761719 249.480469 370.285156 243.960938 369.855469 C 239.160156 369.484375 234.355469 369.1875 229.554688 368.816406 C 222.71875 368.289062 215.886719 367.707031 209.050781 367.171875 C 202.296875 366.644531 195.539062 366.15625 188.785156 365.632812 C 182.285156 365.125 175.785156 364.582031 169.285156 364.082031 C 165.710938 363.808594 162.128906 363.605469 158.550781 363.328125 C 153.191406 362.910156 147.832031 362.433594 142.472656 362.027344 C 138.738281 361.746094 134.996094 361.554688 131.261719 361.28125 C 127.371094 361 123.488281 360.648438 119.601562 360.363281 C 114.429688 359.984375 109.253906 359.640625 104.082031 359.277344 C 97.550781 358.820312 91.019531 358.324219 84.484375 357.90625 C 82.269531 357.765625 80.019531 357.972656 77.820312 357.699219 C 76.71875 357.5625 75.683594 356.746094 74.660156 356.160156 C 73.359375 355.414062 72.097656 354.601562 70.832031 353.800781 C 65.425781 350.367188 59.964844 347.015625 54.636719 343.46875 C 48.148438 339.148438 41.796875 334.632812 35.339844 330.269531 C 32.828125 328.570312 30.222656 327.007812 27.59375 325.5 C 26.589844 324.921875 26.125 324.085938 25.867188 323.105469 C 25.054688 320.03125 24.359375 316.925781 23.554688 313.851562 C 21.585938 306.355469 19.566406 298.867188 17.59375 291.367188 C 16.722656 288.050781 15.953125 284.703125 15.082031 281.386719 C 13.917969 276.96875 12.6875 272.566406 11.507812 268.152344 C 10.332031 263.746094 9.203125 259.328125 8.03125 254.917969 C 6.902344 250.679688 5.722656 246.449219 4.601562 242.207031 C 3.722656 238.878906 2.917969 235.535156 2.035156 232.207031 C 1.84375 231.484375 1.496094 230.796875 1.171875 230.121094 C 0.171875 228.050781 0.632812 225.894531 0.785156 223.761719 C 0.972656 221.15625 1.191406 218.554688 1.386719 215.953125 C 1.777344 210.78125 2.171875 205.613281 2.539062 200.441406 C 2.800781 196.695312 3.003906 192.949219 3.261719 189.207031 C 3.605469 184.25 3.992188 179.300781 4.332031 174.347656 C 4.746094 168.304688 5.109375 162.253906 5.539062 156.210938 C 5.875 151.519531 6.285156 146.835938 6.660156 142.144531 C 6.921875 138.894531 7.132812 135.636719 7.46875 132.394531 C 7.546875 131.671875 7.9375 130.898438 8.398438 130.316406 C 11.296875 126.667969 14.265625 123.074219 17.199219 119.445312 C 20.414062 115.46875 23.640625 111.503906 26.8125 107.496094 C 31.203125 101.949219 35.554688 96.371094 39.914062 90.804688 C 44.328125 85.167969 48.746094 79.535156 53.140625 73.886719 C 57.804688 67.890625 62.425781 61.867188 67.097656 55.878906 C 68.957031 53.496094 70.9375 51.210938 72.804688 48.832031 C 75.027344 45.988281 77.171875 43.082031 79.378906 40.222656 C 80.8125 38.363281 82.292969 36.535156 83.757812 34.699219 C 86.300781 31.511719 88.769531 28.257812 91.425781 25.164062 C 92.710938 23.65625 101.039062 22.714844 103.253906 22.453125 C 107.828125 21.910156 112.402344 21.351562 116.972656 20.761719 C 122.039062 20.109375 127.097656 19.378906 132.164062 18.742188 C 137.566406 18.058594 142.984375 17.46875 148.390625 16.789062 C 152.726562 16.242188 157.046875 15.574219 161.382812 15.023438 C 166.960938 14.316406 172.554688 13.707031 178.136719 12.984375 C 184.351562 12.179688 190.554688 11.285156 196.769531 10.449219 C 202.144531 9.730469 207.523438 9.050781 212.902344 8.324219 C 217.398438 7.710938 221.890625 7.074219 226.382812 6.414062 C 229.65625 5.933594 232.921875 5.363281 236.199219 4.890625 C 238.921875 4.5 241.664062 4.257812 244.382812 3.828125 C 246.101562 3.554688 247.78125 3.054688 249.785156 2.582031 " fill-opacity="1" fill-rule="nonzero"/></g></svg>